<svg width="400" height="400" xmlns="http://www.w3.org/2000/svg">
  <!-- Background -->
  <rect width="400" height="400" fill="#0d1117"/>
  
  <!-- Git Tree (left side) -->
  <g transform="translate(80,150)">
    <!-- Main trunk -->
    <line x1="0" y1="0" x2="0" y2="120" stroke="#8b5a00" stroke-width="6"/>
    
    <!-- Branches to be cleaned -->
    <line x1="0" y1="30" x2="40" y2="10" stroke="#6e7681" stroke-width="3" opacity="0.6"/>
    <line x1="0" y1="50" x2="-35" y2="25" stroke="#6e7681" stroke-width="3" opacity="0.6"/>
    <line x1="0" y1="70" x2="45" y2="45" stroke="#6e7681" stroke-width="3" opacity="0.6"/>
    <line x1="0" y1="90" x2="-40" y2="70" stroke="#6e7681" stroke-width="3" opacity="0.6"/>
    
    <!-- Healthy main branches -->
    <line x1="0" y1="20" x2="30" y2="0" stroke="#56d364" stroke-width="4"/>
    <line x1="0" y1="40" x2="-25" y2="15" stroke="#56d364" stroke-width="4"/>
    <line x1="0" y1="80" x2="35" y2="55" stroke="#56d364" stroke-width="4"/>
    
    <!-- Branch nodes -->
    <circle cx="30" cy="0" r="3" fill="#56d364"/>
    <circle cx="-25" cy="15" r="3" fill="#56d364"/>
    <circle cx="35" cy="55" r="3" fill="#56d364"/>
    
    <!-- Dead branch nodes (to be cleaned) -->
    <circle cx="40" cy="10" r="2" fill="#6e7681" opacity="0.6"/>
    <circle cx="-35" cy="25" r="2" fill="#6e7681" opacity="0.6"/>
    <circle cx="45" cy="45" r="2" fill="#6e7681" opacity="0.6"/>
    <circle cx="-40" cy="70" r="2" fill="#6e7681" opacity="0.6"/>
  </g>
  
  <!-- Simple Character -->
  <g transform="translate(250,200)">
    <!-- Body -->
    <ellipse cx="0" cy="20" rx="25" ry="40" fill="#21262d" stroke="#58a6ff" stroke-width="2"/>
    
    <!-- Head -->
    <circle cx="0" cy="-20" r="20" fill="#161b22" stroke="#58a6ff" stroke-width="2"/>
    
    <!-- Eyes -->
    <circle cx="-8" cy="-25" r="3" fill="#56d364"/>
    <circle cx="8" cy="-25" r="3" fill="#56d364"/>
    
    <!-- Smile -->
    <path d="M -8 -15 Q 0 -10 8 -15" stroke="#79c0ff" stroke-width="2" fill="none"/>
    
    <!-- Arms holding pruning shears -->
    <line x1="-20" y1="0" x2="-35" y2="-10" stroke="#21262d" stroke-width="4" stroke-linecap="round"/>
    <line x1="20" y1="0" x2="35" y2="-10" stroke="#21262d" stroke-width="4" stroke-linecap="round"/>
    
    <!-- Pruning shears -->
    <g transform="translate(-40,-15) rotate(-30)">
      <!-- Handle -->
      <rect x="0" y="0" width="2" height="15" fill="#8b5a00"/>
      <!-- Blade -->
      <path d="M 0 0 L 8 -3 L 8 3 Z" fill="#c0c0c0"/>
      <!-- Pivot -->
      <circle cx="0" cy="0" r="1" fill="#666"/>
    </g>
    
    <!-- Legs -->
    <line x1="-8" y1="60" x2="-8" y2="80" stroke="#21262d" stroke-width="4" stroke-linecap="round"/>
    <line x1="8" y1="60" x2="8" y2="80" stroke="#21262d" stroke-width="4" stroke-linecap="round"/>
    
    <!-- Feet -->
    <ellipse cx="-8" cy="82" rx="6" ry="3" fill="#161b22"/>
    <ellipse cx="8" cy="82" rx="6" ry="3" fill="#161b22"/>
  </g>
  
  <!-- Cutting action lines -->
  <g>
    <line x1="200" y1="170" x2="190" y2="180" stroke="#ff6b6b" stroke-width="2" opacity="0.8">
      <animate attributeName="opacity" values="0;1;0" dur="1s" repeatCount="indefinite"/>
    </line>
    <line x1="205" y1="175" x2="195" y2="185" stroke="#ff6b6b" stroke-width="2" opacity="0.6">
      <animate attributeName="opacity" values="0;1;0" dur="1.2s" repeatCount="indefinite"/>
    </line>
  </g>
  
  <!-- Falling cut branches -->
  <g>
    <line x1="160" y1="220" x2="170" y2="230" stroke="#6e7681" stroke-width="2" opacity="0.4">
      <animateTransform attributeName="transform" type="translate" values="0,0; 10,20; 20,40" dur="3s" repeatCount="indefinite"/>
      <animate attributeName="opacity" values="0.4;0.2;0" dur="3s" repeatCount="indefinite"/>
    </line>
    <line x1="140" y1="240" x2="150" y2="250" stroke="#6e7681" stroke-width="2" opacity="0.3">
      <animateTransform attributeName="transform" type="translate" values="0,0; 15,25; 30,50" dur="4s" repeatCount="indefinite"/>
      <animate attributeName="opacity" values="0.3;0.1;0" dur="4s" repeatCount="indefinite"/>
    </line>
  </g>
  
  <!-- Text -->
  <text x="200" y="350" text-anchor="middle" fill="#79c0ff" font-family="monospace" font-size="16" font-weight="bold">Branch Cleaner</text>
  <text x="200" y="370" text-anchor="middle" fill="#7d8590" font-family="monospace" font-size="12">Pruning dead branches</text>
</svg>